<svg width="112" height="112" viewBox="0 0 112 112" fill="none" xmlns="http://www.w3.org/2000/svg">
<path d="M55.9997 9.33398C81.7727 9.33398 102.666 30.2273 102.666 56.0006C102.666 81.7737 81.7727 102.667 55.9997 102.667C30.2264 102.667 9.33301 81.7737 9.33301 56.0006C9.33301 30.2273 30.2264 9.33398 55.9997 9.33398ZM55.9997 18.6673C35.381 18.6673 18.6663 35.382 18.6663 56.0006C18.6663 76.6194 35.381 93.334 55.9997 93.334C76.6184 93.334 93.333 76.6194 93.333 56.0006C93.333 35.382 76.6184 18.6673 55.9997 18.6673Z" fill="url(#paint0_linear_40000267_12471)"/>
<path d="M78.6756 40.2555C76.8532 38.4331 73.8983 38.4331 72.076 40.2555L48.9769 63.3544L39.0776 53.455L38.6379 53.0667C36.8073 51.643 34.1602 51.7724 32.4779 53.455C30.6555 55.2773 30.6555 58.2323 32.4779 60.0546L45.3473 72.9239L45.795 73.3228C47.81 74.9184 50.7455 74.7855 52.6071 72.9239L78.6756 46.8552L79.0638 46.4155C80.4871 44.5849 80.3577 41.9378 78.6756 40.2555Z" fill="url(#paint1_linear_40000267_12471)"/>
<defs>
<linearGradient id="paint0_linear_40000267_12471" x1="52.4176" y1="91.8786" x2="158.404" y2="-95.2" gradientUnits="userSpaceOnUse">
<stop stop-color="#10B981"/>
<stop offset="1" stop-color="#10B981" stop-opacity="0"/>
</linearGradient>
<linearGradient id="paint1_linear_40000267_12471" x1="53.6988" y1="70.3194" x2="86.8113" y2="-10.1535" gradientUnits="userSpaceOnUse">
<stop stop-color="#10B981"/>
<stop offset="1" stop-color="#10B981" stop-opacity="0"/>
</linearGradient>
</defs>
</svg>
