<svg width="138" height="136" viewBox="0 0 138 136" fill="none" xmlns="http://www.w3.org/2000/svg">
<path fill-rule="evenodd" clip-rule="evenodd" d="M67.755 66.7368C55.6183 78.8714 36.8291 80.2403 23.1884 70.8715C21.4451 69.6527 19.7859 68.2838 18.2385 66.7368C17.442 65.9429 16.6912 65.1236 15.9837 64.261C14.5688 62.5384 13.3294 60.7013 12.314 58.8031C10.5249 55.597 9.30844 52.1951 8.64421 48.6786C6.50139 37.6508 9.70544 25.7808 18.2385 17.2517C26.792 8.69715 38.664 5.514 49.6937 7.6361C53.2082 8.32057 56.6133 9.53683 59.8199 11.3052C61.721 12.3434 63.5329 13.5826 65.2584 14.9973C66.1186 15.7021 66.938 16.4553 67.7321 17.2517C69.2819 18.7987 70.6714 20.4552 71.8675 22.2007C81.2405 35.8366 79.8688 54.625 67.755 66.7368Z" fill="white" fill-opacity="0.1"/>
<path fill-rule="evenodd" clip-rule="evenodd" d="M64.3588 64.3468C51.7322 76.9758 31.2698 76.9734 18.6409 64.3468C6.02842 51.7343 6.02842 31.2696 18.6574 18.643C31.2698 6.03047 51.7323 6.03047 64.3447 18.643C76.9713 31.2696 76.9713 51.7343 64.3588 64.3468ZM70.8389 12.1555C54.6316 -4.05184 28.3681 -4.05184 12.1608 12.1555C-4.04419 28.3605 -4.05829 54.6405 12.1467 70.8478C26.8973 85.5937 50.0171 86.9236 66.2784 74.8162C67.8667 73.6321 69.3963 72.3046 70.8554 70.8478C72.3121 69.3887 73.6396 67.8592 74.8215 66.2709C86.9288 50.0071 85.5872 26.9038 70.8389 12.1555Z" fill="#252525"/>
<path fill-rule="evenodd" clip-rule="evenodd" d="M64.3588 64.3468C51.7322 76.9758 31.2698 76.9734 18.6409 64.3468C6.02842 51.7343 6.02842 31.2696 18.6574 18.643C31.2698 6.03047 51.7323 6.03047 64.3447 18.643C76.9713 31.2696 76.9713 51.7343 64.3588 64.3468ZM70.8389 12.1555C54.6316 -4.05184 28.3681 -4.05184 12.1608 12.1555C-4.04419 28.3605 -4.05829 54.6405 12.1467 70.8478C26.8973 85.5937 50.0171 86.9236 66.2784 74.8162C67.8667 73.6321 69.3963 72.3046 70.8554 70.8478C72.3121 69.3887 73.6396 67.8592 74.8215 66.2709C86.9288 50.0071 85.5872 26.9038 70.8389 12.1555Z" fill="url(#paint0_linear_40000086_5506)"/>
<path fill-rule="evenodd" clip-rule="evenodd" d="M134.622 131.942L133.942 132.622C129.44 137.126 122.069 137.126 117.565 132.622L76 91.0573L93.0573 74L134.622 115.565C139.126 120.069 139.126 127.438 134.622 131.942Z" fill="url(#paint1_linear_40000086_5506)"/>
<path fill-rule="evenodd" clip-rule="evenodd" d="M75.7174 65L88 77.2826L79.2802 86L67 73.7174C68.6207 72.5091 70.1791 71.1545 71.6704 69.668C73.1569 68.1815 74.5115 66.6207 75.7174 65Z" fill="#252525"/>
<path fill-rule="evenodd" clip-rule="evenodd" d="M75.7174 65L88 77.2826L79.2802 86L67 73.7174C68.6207 72.5091 70.1791 71.1545 71.6704 69.668C73.1569 68.1815 74.5115 66.6207 75.7174 65Z" fill="url(#paint2_linear_40000086_5506)"/>
<path fill-rule="evenodd" clip-rule="evenodd" d="M56 14.2986L13.2965 57C11.6883 54.1177 10.5948 51.0593 10 47.8979L46.8975 11C50.0567 11.6176 53.1176 12.7088 56 14.2986Z" fill="#404040"/>
<path fill-rule="evenodd" clip-rule="evenodd" d="M70 24.4484L23.8329 68C22.1796 66.9116 20.6059 65.6866 19.1384 64.3022C18.383 63.5895 17.6686 62.8586 17 62.0867L63.7295 18C64.5477 18.633 65.3249 19.307 66.0779 20.0197C67.5454 21.4041 68.8656 22.8864 70 24.4484Z" fill="#404040"/>
<defs>
<linearGradient id="paint0_linear_40000086_5506" x1="17.4032" y1="-10.7097" x2="69.6129" y2="83" gradientUnits="userSpaceOnUse">
<stop stop-color="#E73C47" stop-opacity="0.6"/>
<stop offset="1" stop-color="#171717"/>
</linearGradient>
<linearGradient id="paint1_linear_40000086_5506" x1="89" y1="66" x2="128" y2="136" gradientUnits="userSpaceOnUse">
<stop stop-color="#E73C47" stop-opacity="0.6"/>
<stop offset="1" stop-color="#171717"/>
</linearGradient>
<linearGradient id="paint2_linear_40000086_5506" x1="71.4032" y1="62.2903" x2="84.6129" y2="86" gradientUnits="userSpaceOnUse">
<stop stop-color="#E73C47" stop-opacity="0.6"/>
<stop offset="1" stop-color="#171717"/>
</linearGradient>
</defs>
</svg>
